<svg width="1600" height="200" viewBox="0 0 1575 400" fill="none">
    <rect x="0" y="0" width="1600" height="400" fill="white" />
    <circle cx="0" cy="200" r="75" stroke="black" />
    <circle cx="0" cy="125" r="50" stroke="black" />
    <circle cx="0" cy="200" r="200" stroke="black" />
    <circle cx="0" cy="200" r="350" stroke="black" />
    <circle cx="0" cy="200" r="500" stroke="black" />
    <circle cx="0" cy="200" r="650" stroke="black" stroke-width="50" />
    <circle cx="0" cy="200" r="800" stroke="black" />
    <circle cx="0" cy="200" r="1000" stroke="black" />
    <circle cx="0" cy="200" r="1200" stroke="black" />
    <circle cx="0" cy="200" r="1400" stroke="black" />
    <circle cx="0" cy="200" r="1575" stroke="black" stroke-width="50" />


    <circle cx="0" cy="275" r="65" fill="orange" />
    <circle cx="0" cy="125" r="25" fill="blue" />
    <circle cx="0" cy="200" r="2" fill="black" />

    <circle cx="50" cy="125" r="10" fill="black" />
    
    <circle cx="200" cy="200" r="20" fill="black" />
    <circle cx="200" cy="200" r="30" stroke="black" stroke-width="5"/>

    <circle cx="350" cy="200" r="15" fill="black" />
    <circle cx="320" cy="200" r="5" fill="black" />
    
    <circle cx="500" cy="200" r="15" fill="black" />
    <circle cx="530" cy="200" r="5" fill="black" />
    <circle cx="480" cy="175" r="5" fill="black" />
    <circle cx="480" cy="225" r="5" fill="black" />    

    <circle cx="800" cy="200" r="20" fill="black" />
    <circle cx="800" cy="200" r="30" stroke="black" stroke-width="3" />

    <circle cx="1000" cy="200" r="25" fill="black" />
    
    <circle cx="1200" cy="200" r="50" fill="black" />
    <circle cx="1275" cy="200" r="5" fill="black" />
    <circle cx="1140" cy="250" r="5" fill="black" />
    <circle cx="1140" cy="150" r="5" fill="black" />
    <circle cx="1220" cy="270" r="5" fill="black" />
    <circle cx="1220" cy="130" r="5" fill="black" />

    <circle cx="1400" cy="200" r="25" fill="black" />
    <circle cx="1440" cy="200" r="5" fill="black" />
</svg>